<?xml version="1.0" encoding="UTF-8" standalone="no"?>
<svg
   version="1.0"
   width="296pt"
   height="120pt"
   viewBox="0 0 296 120"
   preserveAspectRatio="xMidYMid"
   id="svg38"
   sodipodi:docname="logo.svg"
   inkscape:version="1.2.2 (732a01da63, 2022-12-09)"
   xmlns:inkscape="http://www.inkscape.org/namespaces/inkscape"
   xmlns:sodipodi="http://sodipodi.sourceforge.net/DTD/sodipodi-0.dtd"
   xmlns="http://www.w3.org/2000/svg"
   xmlns:svg="http://www.w3.org/2000/svg">
  <defs
     id="defs42" />
  <sodipodi:namedview
     id="namedview40"
     pagecolor="#ffffff"
     bordercolor="#666666"
     borderopacity="1.0"
     inkscape:showpageshadow="2"
     inkscape:pageopacity="0.0"
     inkscape:pagecheckerboard="0"
     inkscape:deskcolor="#d1d1d1"
     inkscape:document-units="pt"
     showgrid="false"
     inkscape:zoom="1.5779792"
     inkscape:cx="119.13972"
     inkscape:cy="107.099"
     inkscape:window-width="1920"
     inkscape:window-height="1001"
     inkscape:window-x="-9"
     inkscape:window-y="-9"
     inkscape:window-maximized="1"
     inkscape:current-layer="g36" />
  <metadata
     id="metadata2">
Created by potrace 1.16, written by Peter Selinger 2001-2019
</metadata>
  <g
     transform="matrix(0.1,0,0,-0.1,0,1019)"
     fill="#000000"
     stroke="none"
     id="g36">
    <path
       d="m 1349.8433,9938.5541 v -120.156 l 69.6954,-0.7597 c 83.9958,-1.1395 620.4855,-1.0129 630.7215,0 l 7.075,0.7597 v 120.029 120.1569 h -353.746 -353.7459 z m 81.7379,95.7199 c 0.4515,-1.646 3.9137,-21.651 7.8275,-44.6949 3.9138,-22.917 7.376,-42.669 7.8276,-43.682 0.4515,-1.012 5.419,18.866 11.1392,44.315 5.5696,25.4499 10.2361,46.3409 10.3866,46.5939 0,0.127 12.494,0.253 27.8481,0.253 h 27.848 l 0.3011,-85.5909 0.4516,-85.59 14.9024,83.311 c 8.2793,45.961 15.2036,84.4519 15.6552,85.7179 0.6021,1.899 3.1612,2.152 27.547,2.152 26.6439,0 26.9449,0 27.6976,-2.785 0.301,-1.646 3.3117,-15.953 6.6233,-32.034 3.1612,-15.9529 10.5371,-51.7839 16.1068,-79.6389 l 10.3866,-50.3925 0.4516,82.4255 0.301,82.4249 h 27.8481 c 24.0848,0 29.2029,-0.38 37.0304,-2.532 12.3436,-3.545 18.8163,-7.217 28.2997,-15.953 l 8.1287,-7.47 -0.9032,5.697 c -0.4517,3.166 -1.3548,8.99 -1.9569,13.041 l -0.9032,7.217 h 23.3321 c 21.0743,0 23.4827,-0.253 24.0848,-2.152 0.4517,-1.266 4.3654,-25.196 8.7308,-53.1779 4.5159,-28.108 8.4297,-51.025 8.8813,-51.025 0.4516,0 4.817,22.917 9.6339,51.025 4.817,27.9819 9.0319,51.9119 9.333,53.1779 0.7526,2.026 4.9675,2.152 60.9646,2.152 h 60.0616 v -18.359 -18.359 h -18.8163 -18.8163 v -22.7899 -22.791 h 19.5689 19.569 v -8.609 c 0,-4.812 -0.4516,-13.041 -0.9033,-18.359 l -1.0536,-9.749 h -17.7625 -17.9131 v -21.525 -21.5238 h 18.0635 18.0637 v -20.2581 -20.2582 h -40.6432 -40.6431 l -0.1506,83.9451 -0.1504,83.8169 -4.9676,-24.0559 c -2.7095,-13.168 -10.0855,-49.632 -16.4077,-81.033 -6.3223,-31.2729 -11.8919,-58.2416 -12.193,-59.7609 -0.7527,-2.9122 -1.0538,-2.9122 -25.5901,-2.9122 -13.6983,0 -24.8375,0.1266 -24.8375,0.3799 -0.1506,0.1266 -5.4191,25.9557 -11.8919,57.2292 -6.4728,31.4 -12.1929,56.09 -12.6446,55.077 -4.8169,-11.902 -6.7738,-15.447 -10.9886,-20.892 -2.7096,-3.418 -6.7739,-8.103 -8.8813,-10.255 l -3.7632,-3.925 12.6445,-36.5915 c 7.0749,-20.1315 13.2467,-37.6041 13.8488,-38.8702 0.9031,-2.0259 -0.4517,-2.1525 -21.3754,-1.8991 l -22.2785,0.3798 -9.1822,29.1209 c -5.1181,16.08 -9.7845,30.6401 -10.3866,32.6661 -0.7527,2.786 -1.8064,3.419 -5.4191,3.419 h -4.516 l -0.301,-33.0462 -0.4516,-32.9194 -40.6431,0.1265 c -27.6976,0 -40.7937,0.5065 -41.5464,1.5194 -0.6021,0.7597 -1.5053,4.3048 -1.9569,7.85 -0.6022,3.5452 -1.8064,10.0025 -2.559,14.434 l -1.6558,7.8498 h -15.6551 c -8.5803,0 -15.6552,-0.3798 -15.6552,-1.0128 0,-1.6459 -3.0106,-22.1574 -3.7632,-26.4622 l -0.9032,-4.1783 h -41.2453 -41.3958 l -0.3011,42.4155 -0.4515,42.5417 -8.8813,-40.8957 c -4.9676,-22.5372 -9.1824,-41.6558 -9.6339,-42.4156 -0.4517,-1.1394 -4.3654,-1.6459 -12.494,-1.6459 -10.9887,0 -11.8919,0.2534 -12.6446,2.9123 -0.4515,1.5193 -4.8169,21.0177 -9.6339,43.3016 l -8.8814,40.5163 -0.602,-43.6816 -0.4516,-43.6816 h -21.0742 -21.0743 l -0.4515,101.6702 -0.3011,101.5439 h 29.2028 c 29.0524,0 29.2028,0 29.9556,-2.785 z m 567.0471,-79.5139 v -82.2982 h 18.0637 18.0636 v -18.992 -18.992 h -39.8905 -39.8905 v 101.2902 101.2909 h 21.8269 21.8268 z"
       id="path4"
       style="fill:#e42c23;fill-opacity:1;stroke-width:0.138055" />
    <path
       d="m 1687.0308,9969.1941 v -32.413 l 4.817,0.76 c 20.9237,3.545 30.8587,34.312 16.2573,51.152 -4.5159,5.318 -10.8382,9.622 -17.1605,11.6479 l -3.9138,1.266 z"
       id="path6"
       style="fill:#e42c23;fill-opacity:1;stroke-width:0.138055" />
    <path
       d="m 1582.7134,9968.6881 c -0.4515,-1.773 -2.2579,-15.447 -4.0644,-30.387 -1.6557,-14.941 -3.4621,-29.375 -3.9137,-31.907 l -0.9031,-4.811 h 10.6877 10.6876 l -0.7527,4.811 c -0.6021,2.532 -3.1611,18.359 -5.8706,35.072 -2.8601,17.346 -5.4191,28.995 -5.8708,27.222 z"
       id="path8"
       style="fill:#e42c23;fill-opacity:1;stroke-width:0.138055" />
    <path
       d="m 652.88837,10032.248 c -3.0106,-0.253 -4.8169,-2.152 -8.8813,-9.496 -2.7095,-5.064 -9.0318,-16.08 -13.8487,-24.4369 -4.9675,-8.483 -8.8813,-16.08 -8.8813,-16.839 0,-0.76 -0.6022,-1.393 -1.5053,-1.393 -0.7527,0 -1.5053,-1.139 -1.5053,-2.532 0,-1.393 -0.6022,-2.533 -1.5054,-2.533 -0.7526,0 -1.5052,-0.886 -1.5052,-1.899 0,-2.279 -15.3541,-28.994 -16.8594,-29.501 -0.7527,-0.253 -1.2043,-1.392 -1.2043,-2.658 0,-1.14 -0.6021,-2.659 -1.2042,-3.419 -0.7527,-0.633 -3.4622,-5.571 -6.3223,-10.889 -2.7095,-5.444 -5.4191,-9.876 -6.0212,-9.876 -0.6021,0 -1.0537,-0.759 -1.0537,-1.519 0,-2.532 -18.3647,-34.3121 -20.4721,-35.4515 -1.0537,-0.6331 -13.6982,-1.0131 -28.1491,-0.8863 -14.4509,0 -30.8587,-0.5065 -36.2778,-1.2662 -5.5696,-0.7598 -13.6983,-1.2662 -18.3647,-1.2662 -4.5159,0.1266 -9.0318,-0.1266 -9.935,-0.633 -1.8064,-1.0129 -21.5258,-3.4185 -31.0092,-3.7984 -3.3117,-0.2533 -7.677,-1.0128 -9.634,-1.8991 -1.8063,-0.8863 -4.8169,-1.2662 -6.6233,-0.8863 -1.6558,0.3798 -4.5159,0 -6.1717,-0.7598 -3.4622,-1.6459 -13.0961,-3.6718 -18.9668,-4.0516 -2.1075,-0.1267 -5.2686,-1.013 -7.2255,-1.8992 -1.9569,-0.8863 -4.5158,-1.2662 -5.8706,-0.8863 -1.2042,0.3797 -3.1612,-0.1267 -4.5159,-1.1396 -1.3548,-1.1395 -3.4623,-1.6459 -5.1181,-1.2661 -1.5053,0.5065 -2.86,0.2532 -2.86,-0.3798 0,-0.7597 -4.2149,-2.4057 -9.4835,-3.7984 -5.118,-1.3927 -14.4509,-4.1783 -20.6225,-6.3307 -6.1719,-2.1524 -12.3436,-4.0516 -13.5478,-4.3049 -1.2042,-0.2532 -2.559,-0.7597 -3.0105,-1.1394 -0.4517,-0.3799 -7.2255,-3.4187 -15.0531,-6.7106 -7.8275,-3.1653 -18.0637,-7.85 -22.5795,-10.2557 -4.516,-2.4056 -10.2361,-5.1911 -12.7951,-6.204 -10.2361,-4.1783 -46.9655,-26.0823 -69.2439,-41.4025 -8.8813,-6.0775 -29.3534,-22.7904 -47.417,-38.617 -13.5477,-12.0284 -37.6326,-36.4648 -37.6326,-38.3639 0,-0.633 -0.9031,-1.7727 -1.9569,-2.5322 -6.3223,-4.3049 -32.062859,-39.63 -44.857959,-61.5341 -4.8169,-8.3565 -9.6339,-15.8267 -10.3866,-16.7129 -0.9032,-0.8864 -1.3547,-2.0259 -1.2042,-2.5323 0.1506,-0.5064 -0.9032,-3.1654 -2.2579,-5.9509 -1.3548,-2.6587 -2.559,-5.3177 -2.559,-5.8241 0,-0.5065 -1.0537,-1.6461 -2.258,-2.5323 -1.2042,-0.8863 -1.9569,-2.0258 -1.5053,-2.5323 0.4515,-0.5064 -0.7527,-4.0516 -2.4085,-7.7234 -4.8169,-10.3822 -5.2686,-11.5218 -7.2255,-16.9661 -1.0536,-2.7855 -2.4084,-6.2041 -3.161,-7.5969 -0.6022,-1.3928 -1.9569,-5.0645 -3.0107,-8.2298 -1.0536,-3.1654 -2.559,-7.3436 -3.4622,-9.496 -0.9031,-2.0258 -1.5053,-5.0645 -1.3547,-6.5839 0.3011,-1.3927 -0.3012,-3.0387 -1.0538,-3.5451 -0.9031,-0.38 -1.6558,-2.9122 -1.6558,-5.571 0,-2.5323 -0.6021,-5.1912 -1.3548,-5.8243 -0.7526,-0.7597 -1.8063,-3.7983 -2.2579,-6.9637 -0.4516,-3.1654 -1.5053,-9.6227 -2.4085,-14.5605 -9.935,-57.7356 -9.0318,-113.3189 3.0106,-163.9642 0.9032,-3.7984 1.957,-8.6097 2.258,-10.7621 0.3011,-2.0258 1.2042,-5.4445 2.1074,-7.5968 0.7526,-2.0258 2.258,-6.3307 3.3116,-9.496 2.258,-7.3436 7.3761,-21.3977 8.8813,-24.6896 0.7527,-1.3927 1.8064,-3.6718 2.4085,-5.0646 0.6021,-1.3927 1.2042,-3.0386 1.3548,-3.7983 0,-0.6331 0.9032,-2.4057 1.6559,-3.7985 0.9031,-1.3927 3.1611,-5.9507 5.1179,-10.129 1.957,-4.1782 4.2149,-8.3564 4.9675,-9.2428 0.7527,-0.8862 1.0537,-1.8992 0.6022,-2.279 -0.4516,-0.5065 -0.1506,-1.3927 0.6021,-2.2791 0.7526,-0.7596 7.376,-11.6484 14.752,-24.1831 18.2141,-31.0202 37.933559,-57.9888 60.211959,-82.2985 4.9676,-5.4444 9.1824,-11.0154 9.1824,-12.155 0,-1.1395 -1.3549,-4.3048 -2.8601,-7.0903 -5.8707,-9.6226 -16.7088,-29.6274 -16.7088,-30.6405 0,-0.6329 -1.0538,-1.7724 -2.258,-2.6587 -1.2042,-0.8864 -1.9569,-2.0259 -1.5052,-2.5324 0.4515,-0.633 0,-1.7725 -1.0538,-2.7855 -1.0537,-0.8862 -1.9569,-2.1523 -1.9569,-2.912 0,-0.6331 -5.2686,-10.2557 -11.7413,-21.1445 -6.322299,-10.8887 -11.590759,-20.5112 -11.590759,-21.2709 0,-0.6331 -0.6022,-1.2662 -1.3549,-1.2662 -0.7526,0 -1.6558,-1.646 -2.1073,-3.6719 -0.4517,-2.0258 -1.957,-4.558 -3.3118,-5.5709 -1.2042,-1.1395 -2.258,-2.5323 -2.258,-3.2919 0,-0.7597 -0.6021,-2.4057 -1.3547,-3.6718 -0.7526,-1.1396 -2.7096,-4.6847 -4.3653,-7.85 -4.3654,-8.4831 -7.075,-13.0412 -9.333,-16.0799 -1.2042,-1.5194 -1.8063,-3.0388 -1.3547,-3.4185 1.2043,-1.013 221.580459,-1.1396 224.590959,-0.1267 1.3548,0.5064 2.5591,1.3927 2.5591,1.8992 0,0.6331 0.9031,1.8992 1.9569,2.7855 2.8601,2.6589 5.5696,7.0903 5.5696,9.2428 0,1.0129 0.7526,1.8992 1.5053,1.8992 0.9031,0 1.5052,0.633 1.5052,1.3927 0,2.2791 6.0213,12.5348 7.5266,12.5348 0.7526,0 6.6233,-1.7726 13.0961,-3.9251 6.4728,-2.1523 15.5046,-5.0645 20.0206,-6.4572 9.0317,-2.6589 12.0423,-3.6718 18.8162,-6.2042 2.5589,-0.8862 5.118,-1.5193 5.7201,-1.3927 0.6021,0.1267 2.7096,-0.3797 4.5159,-1.266 1.8064,-0.8864 3.9138,-1.3928 4.5159,-1.2662 1.8065,0.3798 11.5909,-2.4057 15.2036,-4.3048 1.5053,-0.8864 3.6127,-1.2662 4.6665,-0.8864 1.2042,0.2532 3.4621,-0.1265 5.4191,-0.8862 1.8063,-0.8864 5.4191,-1.7727 7.978,-1.8992 7.6771,-0.7598 18.2142,-2.659 20.3216,-3.6718 1.0537,-0.6331 4.0643,-1.2662 6.6233,-1.5193 2.7095,-0.2534 9.1824,-1.013 14.6015,-1.6461 27.0954,-3.4185 43.3527,-4.558 62.47,-4.558 27.246,0 57.8036,1.5193 66.3838,3.2919 3.6128,0.7596 8.4297,1.1395 10.6876,0.7596 2.258,-0.3797 5.7202,0 7.8276,0.7598 2.2579,0.633 7.677,1.7725 12.193,2.279 4.5159,0.5064 11.7413,1.6459 15.8056,2.4057 4.2149,0.7597 9.634,1.5193 12.3435,1.7726 2.559,0.1266 5.8707,1.0129 7.0749,1.8991 1.3548,1.0129 3.7633,1.3929 5.4191,1.0129 1.5053,-0.3798 3.6127,0.1266 4.6664,1.1395 0.9033,1.0129 3.3117,1.7726 5.2686,1.7726 2.1075,0 4.8169,0.5065 6.3223,1.2662 1.3547,0.633 7.9781,2.6588 14.6014,4.558 6.6233,1.8993 13.9993,4.1783 16.2573,5.1912 2.4085,1.013 5.2685,1.5194 6.4728,1.1395 1.2042,-0.3799 2.1074,-0.2533 2.1074,0.2533 0,1.1395 16.1067,7.2169 18.8163,7.2169 0.9031,0 1.8064,0.2532 2.2579,0.7596 0.4516,0.3799 9.6339,4.305 20.3216,8.7364 10.8382,4.4315 19.87,8.6096 20.0205,9.1161 0.3011,0.5066 1.2043,1.013 2.1074,1.013 0.7527,0 3.4623,1.1395 5.8707,2.6588 2.4085,1.3928 4.3654,2.2791 4.3654,1.8992 0,-0.633 11.2897,5.8243 33.1166,18.8655 27.8481,16.8394 65.029,45.454 88.6624,68.3711 23.6331,23.0435 44.2558,44.9477 48.019,50.8984 l 1.8064,2.659 -91.9739,0.1266 c -65.6312,0 -92.8772,-0.2532 -95.1352,-1.3928 -1.8063,-0.7597 -6.1717,-3.4185 -9.4833,-5.9507 -21.9775,-16.2066 -48.6213,-30.7671 -76.1683,-41.7824 -20.3216,-8.1034 -26.7944,-10.3823 -28.2997,-9.6227 -0.6021,0.3799 -1.9569,-0.2532 -3.0106,-1.2661 -1.0537,-1.1395 -3.1611,-1.6459 -4.6664,-1.2661 -1.6559,0.5064 -2.8601,0.2532 -2.8601,-0.5065 0,-1.2661 -9.3329,-3.925 -15.8057,-4.4315 -1.6558,-0.2531 -4.3653,-0.8863 -6.0212,-1.6459 -2.7095,-1.2662 -18.0636,-4.3049 -30.8587,-6.0774 -23.9343,-3.5452 -34.0198,-4.4316 -55.6961,-5.0646 -23.1817,-0.7596 -43.2022,0.2533 -65.4807,3.0388 -19.1173,2.5322 -34.6219,5.3177 -35.5251,6.7105 -0.6021,0.7597 -1.6558,1.0128 -2.559,0.5064 -0.9032,-0.3799 -4.2149,0 -7.3759,1.0129 -3.1612,0.8863 -11.2899,3.1653 -17.9132,5.0646 -19.7195,5.3177 -29.2028,9.2427 -29.2028,12.0281 0,2.659 41.9979,75.2084 43.9548,75.8414 0.6021,0.2532 1.2042,1.5194 1.2042,2.9121 0,1.2662 0.6021,2.4056 1.3548,2.4056 0.7526,0 1.6558,1.6461 2.1074,3.6719 0.4516,2.0257 1.9569,4.558 3.3117,5.5709 1.2042,1.1395 2.1074,2.5323 1.9569,3.0387 -0.4516,1.2662 28.6007,50.772 30.4071,51.6582 2.7095,1.3928 155.6482,0.6332 157.304,-0.7595 0.9032,-0.7598 1.8063,-16.9663 2.258,-43.3018 l 0.7526,-42.0357 383.40043,-0.3798 383.4004,-0.2532 2.4086,3.6718 c 1.2042,2.1524 2.2578,4.9379 2.2578,6.3306 0,1.3928 0.6022,2.9121 1.5054,3.2919 0.7526,0.3799 1.5053,2.4057 1.5053,4.4315 0,2.0259 0.7526,4.0517 1.5053,4.4316 0.9032,0.3798 1.5053,2.4056 1.5053,4.3048 0,2.0257 1.0537,4.3048 2.2579,5.1911 1.3549,1.0129 1.957,2.6589 1.3549,4.5581 -0.6022,1.8992 -0.3011,3.0387 0.7525,3.0387 0.9032,0 1.6559,1.5194 1.6559,3.2919 0,4.8114 3.1611,13.1677 4.817,12.4082 0.6021,-0.3799 1.2042,-12.2815 1.0536,-26.4623 -0.1504,-14.1806 0.3011,-26.3356 0.7528,-27.0951 1.5052,-1.8992 155.3471,-2.0259 156.7019,0 0.6021,0.7595 1.3547,2.9121 1.5053,4.6846 1.0537,6.4573 2.7095,11.0154 4.817,13.0412 1.0536,1.1395 1.6557,2.9121 1.2042,4.0517 -0.6021,1.0128 0,3.5451 1.2042,5.5709 1.0538,1.8992 1.8063,4.4314 1.5053,5.6976 -0.3011,1.1394 0.1506,2.4057 0.9032,2.9121 0.9031,0.3799 1.6559,1.7726 1.6559,3.0388 0,4.8112 4.6664,15.32 6.7737,15.32 1.2043,0 2.2581,-1.1394 2.2581,-2.5322 0,-1.3927 0.7526,-2.5322 1.5052,-2.5322 0.9032,0 1.5054,-0.6331 1.5054,-1.3927 0,-0.6332 2.7095,-4.5581 5.8706,-8.4831 9.7845,-12.0283 22.8807,-20.8912 41.6969,-28.1082 7.0749,-2.7854 13.8488,-5.0645 15.0531,-5.0645 1.2042,0 2.1073,-0.5065 2.1073,-1.2661 0,-0.6331 1.957,-1.2662 4.3654,-1.2662 2.559,0 4.8171,-0.5065 5.2686,-1.1395 3.1611,-4.3049 29.8049,-4.5581 346.8215,-4.1782 l 304.5227,0.2532 2.2578,4.8113 c 1.2043,2.5322 2.8601,5.6976 3.6128,6.8371 0.9032,1.2661 1.5053,3.925 1.5053,5.9509 0,2.0258 0.9031,4.3048 2.1074,5.0645 1.2042,0.8862 1.8063,2.5322 1.3548,3.7984 -0.4517,1.2662 0,2.7855 0.9031,3.1653 0.9032,0.5065 1.6559,2.4056 1.6559,4.3049 0,4.4314 2.8601,12.9145 4.2147,12.9145 0.7528,0 1.2043,-10.2557 1.2043,-22.6638 -0.1504,-12.5347 0.3012,-23.0436 0.7527,-23.4235 1.6559,-1.3927 360.5199,-0.8863 367.8958,0.5065 10.3866,1.8991 25.1386,8.3564 33.1166,14.1807 7.2255,5.3177 21.827,22.4105 21.827,25.4493 0,0.8863 0.6021,2.1523 1.3547,2.9121 0.7527,0.633 4.5159,8.7364 8.2792,18.1057 3.6126,9.2427 7.0748,17.2193 7.5265,17.5992 0.4515,0.3799 0.9032,1.7727 0.9032,3.1653 0,2.7856 2.559,10.2558 4.6663,13.8009 0.7528,1.2662 1.3549,3.2919 1.3549,4.5581 0,1.2661 1.6557,7.0903 3.7633,13.0412 11.2897,31.6533 12.9455,48.2396 7.8275,84.0712 -1.3548,9.1161 -2.7096,19.3718 -3.1612,22.7903 -1.5052,11.5219 -2.559,16.4598 -3.9138,18.992 -0.7525,1.3927 -1.6557,7.7234 -2.1074,13.9275 -0.4515,6.3307 -1.5052,15.9533 -2.4084,21.5243 -0.7527,5.5709 -2.1075,14.687 -3.0107,20.2581 -0.7526,5.571 -2.1074,14.6871 -3.0105,20.2581 -0.9032,5.5709 -2.258,14.6871 -3.1612,20.2581 -0.9031,5.571 -2.258,14.4339 -3.0105,19.6251 -0.9032,5.1911 -1.8065,13.0411 -2.1075,17.4725 -0.3011,4.3049 -1.0537,8.4832 -1.5053,9.1163 -1.0537,1.3927 -3.9138,19.7516 -4.6665,29.754 -0.301,3.5453 -1.3547,8.9895 -2.1074,12.2815 -0.9031,3.1654 -1.5052,8.1032 -1.2042,10.7621 l 0.4516,4.8113 68.1902,0.6331 68.0396,0.6331 2.2579,3.6718 c 1.2043,1.8992 2.258,5.0646 2.258,6.9638 0,1.8991 1.0538,4.558 2.258,5.9507 1.2042,1.5195 1.6558,3.0388 1.2042,3.5452 -0.9032,0.7597 1.8063,9.8759 4.2149,13.6742 0.7526,1.2662 1.3547,3.925 1.3547,5.9509 0,2.1524 0.7526,4.1782 1.5053,4.558 0.9032,0.3799 1.5054,2.4057 1.5054,4.5581 0,2.0258 0.6021,4.6847 1.3547,5.9509 0.7527,1.1394 2.559,6.204 3.9138,11.0153 1.3547,4.938 3.1612,10.8887 3.9137,13.2944 0.7527,2.4057 1.9569,6.7105 2.7097,9.496 0.602,2.7855 3.3116,11.775 6.0211,20.0048 2.7096,8.7364 4.6665,17.9791 4.6665,22.4106 v 7.4702 l -14.6015,0.3798 c -24.988,0.6331 -217.5161,-1.1395 -224.7416,-2.0258 -3.7632,-0.5064 -8.1286,-1.3928 -9.7844,-1.8992 -1.6558,-0.633 -6.0212,-1.8992 -9.7844,-2.7855 -12.7951,-3.1653 -26.0418,-10.3823 -37.7832,-20.3847 -6.3222,-5.3177 -12.0424,-9.2428 -12.795,-8.8629 -0.7527,0.5064 -3.3117,3.2919 -5.7201,6.3307 -5.2687,6.4572 -22.128,20.0048 -26.3428,21.1444 -1.8065,0.3798 -3.1612,1.3927 -3.1612,2.0257 0,0.7597 -0.6021,1.0129 -1.2042,0.6331 -0.7527,-0.3798 -3.1611,0.2533 -5.4191,1.2662 -2.4085,0.8863 -5.5696,1.7725 -7.0749,1.7725 -1.5054,0 -3.1612,0.6331 -3.6128,1.2661 -0.6021,0.8863 -120.1231,1.2662 -353.4448,1.2662 l -352.5418,0.1266 -10.9887,-2.9121 c -6.6233,-1.7726 -13.8488,-4.8113 -18.0635,-7.5968 -3.9139,-2.6589 -10.3867,-6.9637 -14.6016,-9.7492 -9.1822,-6.0775 -38.3851,-31.2734 -52.6855,-45.4542 -5.7201,-5.8242 -13.2466,-13.2944 -16.5583,-16.4598 -3.3116,-3.2919 -10.8382,-11.3951 -16.8594,-17.979 -15.8056,-17.4726 -18.0636,-19.7517 -19.2678,-18.7388 -0.6021,0.5065 -0.4517,2.5324 0.301,4.4316 0.9032,1.8992 2.4085,6.0774 3.4622,9.2427 0.9032,3.1653 2.4085,6.7105 3.1611,7.85 0.7527,1.2662 1.3548,3.925 1.3548,5.9509 0,2.1523 0.7527,4.1782 1.5053,4.558 0.9032,0.3798 1.5054,2.0258 1.5054,3.4186 0,2.9121 2.5589,10.2556 4.6664,13.9274 0.7526,1.2662 1.3547,3.5452 1.3547,5.3178 0,1.6459 1.0537,5.4444 2.258,8.3564 1.2042,3.0388 2.559,6.8372 3.0106,8.4832 0.7526,3.5451 3.3117,11.1419 5.118,14.9403 1.2042,2.5323 5.5696,17.346 6.9244,23.2969 0.4516,1.7726 1.5053,3.5451 2.5591,4.1782 1.5052,0.7596 1.2042,1.5193 -0.9032,2.9121 -2.5591,1.646 -14.9026,1.8992 -85.3507,1.8992 -63.9754,0 -82.641,-0.3799 -83.8453,-1.5193 -0.7527,-0.8863 -2.559,-5.0646 -4.0643,-9.2429 -1.3548,-4.1782 -3.3117,-8.3564 -4.0643,-9.2426 -0.9032,-0.8863 -1.2042,-1.8993 -0.7527,-2.4058 0.4517,-0.3797 0,-2.6588 -1.2042,-5.0644 -1.2043,-2.5324 -2.258,-5.4444 -2.258,-6.7106 0,-1.266 -1.3548,-6.0775 -3.0106,-10.6355 -3.3117,-8.9895 -6.9244,-10.2556 -5.5696,-2.1524 1.0537,6.8371 -1.9569,43.555 -3.7632,45.4542 -1.2043,1.2661 -59.0079,1.5193 -285.7064,1.2661 -156.4009,-0.2533 -284.65263,-0.7597 -285.25473,-1.1395 -0.7527,-0.7598 -9.935,-24.4364 -12.7951,-33.4259 -4.2148,-13.0412 -8.8812,-24.0565 -10.236,-24.4364 -1.3548,-0.3799 -1.8064,6.8372 -1.8064,27.2218 0,20.2582 -0.4516,28.3614 -1.8064,29.8807 -1.8064,1.8993 -8.4296,2.1525 -74.964,2.4057 l -73.0071,0.3798 -0.4516,125.5999 -0.3011,125.7279 -80.9853,0.253 c -44.4064,0.253 -82.4905,0.253 -84.5979,0 z m 138.1868,-337.2978 c 0.1504,-173.9666 -0.1506,-316.2799 -0.6022,-316.2799 -0.4516,0 -32.665,26.3356 -71.5019,58.3687 l -70.5986,58.4954 -0.301,96.9857 c -0.3011,53.3041 -1.0538,96.9857 -1.6559,96.9857 -0.7527,0 -2.8601,-3.1653 -4.817,-6.9636 -1.8063,-3.7986 -25.5901,-46.5938 -52.6855,-94.9601 -27.0955,-48.3662 -53.8898,-96.226 -59.4595,-106.3551 -5.5695,-10.1291 -14.7519,-26.3355 -20.171,-35.9581 -5.5696,-9.7492 -9.7844,-18.359 -9.4834,-19.1186 0.4516,-0.8863 22.8806,-1.2662 72.7061,-1.1396 39.7399,0.1267 73.0071,0.2533 74.0608,0.3799 1.3548,0.1265 1.8064,6.3307 1.8064,26.5887 0,14.6872 0.6021,26.8421 1.2043,27.2219 0.6021,0.2532 7.677,-4.5581 15.5045,-10.8886 20.3216,-16.3333 118.3168,-97.9988 119.3705,-99.5182 0.4516,-0.6331 -14.6015,-13.9274 -33.4177,-29.6274 -71.8029,-59.7615 -98.8983,-81.7922 -99.651,-81.1592 -0.4516,0.2533 -0.9032,11.6485 -0.9032,25.1961 -0.1505,13.6742 -0.9031,25.3226 -1.6558,25.9557 -0.7526,0.6331 -40.7937,1.0129 -102.8121,0.8863 l -101.4574,-0.3798 -67.4375,-115.8512 c -37.0304,-63.6864 -74.6629,-128.1325 -83.5443,-143.0729 l -16.2572,-27.2219 -81.5874,-0.3798 c -66.2332,-0.2533 -81.7379,0 -81.7379,1.3927 0,1.3928 15.8057,30.0074 59.7605,107.8745 7.9781,13.9275 19.2679,34.1855 25.2891,44.9477 6.0212,10.7621 14.752,26.4622 19.5689,34.8187 4.6664,8.3564 16.5583,29.5008 26.3428,46.8469 9.6339,17.4726 23.7837,42.5421 31.3103,55.7098 7.376,13.2944 22.429,40.0098 33.4177,59.5082 10.9887,19.4985 22.7301,40.6428 26.3427,46.8469 3.4622,6.3308 18.0637,32.1597 32.364,57.6091 14.3005,25.4492 32.063,57.1026 39.439,70.2703 7.5265,13.2945 18.9668,33.4259 25.289,44.9478 6.4728,11.5217 20.9238,37.4775 32.364,57.609 11.2898,20.2581 35.0736,62.4203 52.6856,93.6938 17.612,31.4001 55.8467,99.3915 85.0495,151.3024 29.2029,51.912 55.0941,97.999 57.6531,102.557 7.5265,13.9279 0.4516,12.7879 69.3945,12.4089 l 60.3625,-0.38 z m -251.6866,160.5457 c 1.0538,-2.1525 -40.1915,-75.5881 -43.0516,-76.8543 -1.2042,-0.5065 -12.1929,-2.0258 -24.2354,-3.5452 -44.4064,-5.4443 -79.9315,-14.9403 -119.6715,-31.7799 -61.1152,-26.0824 -111.0912,-63.6865 -150.6807,-113.3189 -29.0523,-36.338 -51.6318,-83.0582 -61.4163,-126.6132 -10.236,-46.2139 -9.6339,-99.8979 1.6559,-142.4399 10.3866,-38.6171 25.5901,-72.0429 46.5137,-101.9237 4.6665,-6.7105 8.5803,-13.1678 8.5803,-14.3073 0.1506,-1.1396 -6.0212,-13.2944 -13.8488,-26.8421 -7.677,-13.5475 -17.1604,-30.5137 -21.2247,-37.6041 -3.9139,-7.2169 -7.8276,-13.0411 -8.5803,-13.0411 -0.9032,0 -5.2685,4.1782 -9.6339,9.2427 -45.008499,50.3921 -76.619759,110.027 -91.371759,171.6876 -12.9456,53.5574 -13.3973,114.7116 -1.5054,167.2562 40.7937,179.9173 210.742259,317.2927 419.076059,338.5637 34.4715,3.5452 68.1902,4.305 69.3944,1.5195 z m 402.2167,-194.7312 c 0.1505,-60.6478 0.9032,-95.9729 1.8064,-95.9729 0.7526,0 2.7096,3.7984 4.3654,8.6097 10.6876,30.5138 29.5039,83.4381 32.5144,91.4148 1.957,5.1911 9.7845,27.2219 17.311,48.7461 7.67713,21.6509 14.45103,40.263 15.35423,41.5291 1.2042,2.0258 5.5696,2.1525 57.6531,2.1525 32.2134,0 56.5992,-0.5064 57.0509,-1.1396 0.6021,-0.633 -6.4728,-23.0436 -15.5047,-49.759 -9.0318,-26.5887 -23.6331,-69.8905 -32.364,-95.9728 -8.8812,-26.0824 -19.4184,-57.1027 -23.4827,-69.0042 -4.0643,-11.7751 -15.9562,-46.847 -26.3427,-77.8672 -10.3866,-31.0203 -20.9237,-62.0405 -23.3323,-69.0043 -2.4084,-6.9636 -13.69823,-40.0097 -24.83743,-73.4356 -31.9124,-94.8334 -32.364,-95.9729 -34.1704,-97.7454 -1.2042,-1.3928 -13.3971,-1.6459 -60.5131,-1.3928 l -58.8573,0.3799 -0.4516,266.3943 c -0.3011,212.3304 0,266.6475 1.5053,267.5337 1.0537,0.5066 26.6439,0.8863 56.9004,0.6331 l 54.9435,-0.2533 z m 449.48323,93.3139 c -0.1505,-2.1524 -18.8163,-59.8881 -26.9448,-83.1848 l -2.4086,-7.2171 -54.793,-0.3797 c -30.106,-0.2533 -55.0941,-0.7598 -55.5456,-1.1396 -1.3548,-1.1395 -38.5357,-110.9133 -38.5357,-113.8253 0,-2.5322 0.6021,-2.5322 54.0403,-2.5322 41.9979,0 54.1908,-0.3799 54.7929,-1.5195 0.3011,-0.8863 -0.301,-4.1783 -1.3547,-7.3436 -1.0537,-3.1653 -5.7201,-17.9791 -10.3866,-32.9194 -14.9025,-46.9736 -17.612,-55.0769 -19.4184,-55.9632 -0.9031,-0.5064 -26.4933,-1.0128 -56.7498,-1.0128 -42.299,0 -55.5457,-0.3799 -56.5994,-1.5194 -2.4085,-2.7855 -42.9011,-123.5745 -41.8474,-124.9673 0.6021,-1.0128 19.2679,-1.3928 57.352,-1.3928 51.6318,0 56.2983,-0.1265 56.2983,-2.1523 0,-1.8992 -18.6657,-58.622 -27.9986,-84.8309 l -3.7632,-10.5088 h -115.7578 c -102.96273,0 -115.90833,0.2531 -115.90833,1.8991 0,1.8992 10.3866,33.2992 41.39593,125.3472 13.9992,41.7824 75.8672,226.3845 99.3499,296.9079 31.3103,93.8205 35.8262,107.115 37.1809,109.2673 1.2043,2.0258 7.8276,2.1525 114.5536,1.8992 112.1449,-0.3799 113.1986,-0.3799 113.0481,-2.912 z m 146.6164,2.1524 c 1.3548,-0.7596 2.4084,-18.3589 4.0643,-72.5494 1.3548,-39.2501 2.4085,-79.7663 2.559,-90.022 0.1506,-19.4984 1.3549,-24.4363 4.0644,-18.3589 0.9031,2.0259 1.6559,4.1782 1.6559,4.8113 0,1.5194 56.7498,168.3956 58.7066,172.8271 l 1.5053,3.0387 h 55.6963 c 55.2445,0 55.6961,0 55.6961,-2.6589 0,-1.3927 -3.0106,-11.5217 -6.6234,-22.4104 -3.7632,-10.8889 -10.5371,-31.527 -15.2034,-45.8341 -4.6665,-14.3074 -10.0856,-30.7671 -12.0425,-36.7179 -5.7202,-16.9662 -22.8806,-69.384 -30.8586,-93.6939 -15.9563,-48.4928 -24.386,-74.4486 -36.88,-112.0527 -7.2255,-21.5242 -15.6551,-47.48 -18.9668,-57.6091 -6.4728,-19.3716 -16.5582,-50.1386 -38.9873,-118.3834 -7.5265,-22.917 -14.451,-42.4154 -15.3541,-43.3016 -1.2042,-1.2662 -12.795,-1.6459 -52.9867,-1.3928 l -51.3307,0.3799 -0.9032,15.1935 c -0.602,8.3565 -1.5052,51.2783 -2.1074,95.3398 -0.9032,63.1801 -1.6558,80.0196 -3.1611,80.0196 -1.0538,0 -2.5591,-2.6588 -3.4622,-5.9508 -0.7527,-3.4186 -9.1824,-28.8679 -18.8163,-56.7228 -9.4834,-27.8548 -22.7301,-66.7252 -29.3534,-86.3502 -6.7739,-19.625 -12.9456,-37.2243 -13.6983,-38.9969 l -1.5053,-3.1652 h -56.4488 c -54.6424,0 -56.4488,0.1265 -56.4488,2.4055 0,2.1524 6.9244,23.6767 31.4609,98.252 4.0642,12.5347 14.6013,44.6944 23.4826,71.5364 8.7308,26.842 17.6121,53.5574 19.569,59.5082 1.9568,5.9508 10.5371,31.5268 18.8163,56.976 8.4297,25.4494 16.8593,51.0252 18.8163,56.9761 8.4296,25.3225 11.5908,34.9452 19.5688,59.5082 9.7845,29.8808 18.8163,57.1026 24.8375,75.3348 2.258,6.9638 7.0749,21.5243 10.6877,32.2865 3.4622,10.7621 7.376,20.3847 8.7307,21.2709 1.6559,1.1396 14.6014,1.5195 52.6856,1.5195 27.8481,0 51.4813,-0.5064 52.535,-1.013 z m 511.05,-0.633 c 0.301,-0.8864 -0.4515,-4.9379 -1.9569,-9.1161 -1.5053,-4.1783 -7.978,-23.5501 -14.3003,-43.0486 -6.4728,-19.4984 -12.3436,-36.4646 -12.9457,-37.6041 -1.3547,-2.0258 -6.1716,-2.2791 -54.0403,-2.5322 l -52.5351,-0.3799 -12.3434,-11.142 c -41.9979,-38.1105 -79.6305,-80.3994 -93.9308,-105.3422 -4.5159,-7.9766 -15.5047,-39.1234 -45.9117,-130.4117 -28.9019,-86.7301 -28.1492,-83.5648 -22.429,-89.6423 4.2148,-4.6846 15.6552,-7.2169 32.0628,-7.2169 7.5266,0 14.451,0.5065 15.3541,1.0129 1.0538,0.5065 9.7845,23.4235 19.4184,50.8986 9.634,27.4751 19.569,55.4566 21.9775,62.0405 2.2579,6.5839 3.7632,12.4081 3.1611,12.9145 -0.6021,0.5065 -7.0749,1.1396 -14.3003,1.3928 -7.075,0.1266 -13.3972,0.633 -13.8488,1.0129 -0.4517,0.3798 3.6126,13.8008 8.8813,29.7541 5.2685,15.9533 12.3434,37.2244 15.6551,47.2267 3.3116,10.0024 6.9244,18.7388 8.1287,19.2453 2.5589,1.5193 139.8424,1.3927 142.552,0 1.2042,-0.6331 1.6558,-2.1525 1.3547,-3.4186 -0.4515,-1.3927 -6.0211,-18.1057 -12.1929,-37.2243 -6.3222,-19.1186 -15.8056,-48.4929 -21.3752,-65.2058 -5.5697,-16.713 -12.6446,-38.3638 -15.8058,-48.1131 -10.0855,-31.0202 -23.6332,-72.6759 -31.3102,-96.226 -4.2149,-12.5347 -10.6877,-32.413 -14.6014,-44.3147 -3.9138,-11.775 -7.8276,-22.917 -8.7308,-24.6895 l -1.8064,-3.1653 -77.523,-0.3799 c -81.1358,-0.3799 -102.511,0.5064 -122.9831,4.9379 -42.7506,9.1162 -64.427,34.0589 -61.7174,70.7768 0.602,8.6098 4.8169,22.6638 20.6226,70.2704 10.8382,32.7927 22.2784,67.4848 25.5902,77.2341 8.8812,26.7153 35.224,105.8487 43.9547,131.6777 4.2149,12.5347 9.634,26.2089 12.1929,30.3871 10.5372,17.5993 59.0079,73.3091 84.8991,97.4923 18.0637,16.8395 39.8905,34.3122 52.8361,42.0355 18.0636,10.8887 12.3435,10.3823 110.3387,10.509 68.6417,0 87.0064,-0.3799 87.6085,-1.6459 z m 267.4921,0.8863 c 0,-0.3799 -4.6664,-15.067 -10.3865,-32.6663 -5.7201,-17.4726 -12.3435,-37.4775 -14.6014,-44.4412 -2.2581,-6.9637 -4.6665,-13.421 -5.5696,-14.1807 -1.0538,-1.2662 -13.9994,-1.646 -55.2447,-1.646 -41.8473,0 -54.1908,-0.3799 -55.3951,-1.6459 -0.9031,-0.8863 -6.3222,-15.8267 -12.1929,-33.1727 -5.8706,-17.4726 -14.3003,-42.4154 -18.6657,-55.7099 -4.5159,-13.1677 -7.8277,-24.8161 -7.376,-25.5758 0.4516,-1.2662 12.795,-1.6459 54.4919,-1.6459 29.805,0 54.3414,-0.5065 54.793,-1.013 1.3548,-2.0258 -29.0524,-94.4536 -31.7618,-96.0995 -1.6559,-1.1395 -16.5585,-1.5193 -55.9973,-1.6459 -29.3534,0 -54.0404,-0.5065 -54.6424,-1.013 -1.2043,-1.0128 -11.7414,-31.6533 -32.063,-93.8204 -8.4297,-25.3226 -9.7845,-31.0203 -8.1286,-31.9065 1.2042,-0.6331 26.3428,-1.1396 55.9972,-1.1396 46.0622,0 53.7393,-0.2531 53.7393,-1.8992 0,-3.1653 -30.1061,-92.301 -31.9123,-93.9469 -2.4087,-2.5324 -229.7092,-2.4059 -230.9134,0.1265 -0.7527,1.646 3.6127,15.0669 33.4177,103.9496 16.7089,49.5057 20.4721,60.9007 35.0735,104.4559 16.1068,48.4928 28.7512,85.9703 40.041,119.6496 17.9131,53.0509 32.5145,96.6058 50.4277,150.6696 9.3328,27.855 17.6119,51.6583 18.3647,52.9244 1.2042,2.0258 8.2791,2.1525 114.8544,2.1525 62.4701,0 113.6503,-0.3799 113.6503,-0.7597 z m 262.5248,-1.646 c 7.978,-2.1524 21.9773,-14.1807 26.7943,-22.9169 8.7307,-15.7002 9.0318,-31.9066 1.2042,-57.4825 -14.1499,-45.7074 -51.4813,-152.3157 -55.8467,-159.0262 -9.6339,-15.1937 -26.3427,-25.4493 -48.7718,-30.0075 -5.7201,-1.1394 -11.4402,-2.5321 -12.3434,-3.2919 -1.5053,-0.8863 -1.9569,-29.121 -2.2579,-130.5383 l -0.4517,-129.272 -56.4488,-0.3799 c -31.0093,-0.1266 -57.9541,0 -59.911,0.3799 l -3.4622,0.7595 0.4515,95.4666 c 0.3011,72.4226 0,95.5929 -1.3547,95.5929 -0.9032,0 -2.2579,-1.8992 -2.7095,-4.0517 -1.0538,-4.1782 -16.8594,-51.405 -33.8693,-101.0373 -4.817,-14.3073 -13.2467,-38.9969 -18.6658,-55.0769 -6.1718,-18.1056 -10.9886,-29.754 -12.494,-30.6402 -1.9569,-1.2662 -16.5583,-1.6459 -60.9647,-1.6459 -51.7824,0 -58.5562,0.2531 -59.4594,2.0257 -0.4516,1.0129 3.3116,14.5605 8.5802,30.0074 5.118,15.4467 12.193,36.971 15.8056,47.7331 3.6129,10.7621 11.7415,35.3252 18.0637,54.4437 6.3222,19.1186 14.4509,43.6816 18.0636,54.4437 3.6127,10.7621 20.171,60.6478 36.8799,110.7867 16.5583,50.1389 34.923,105.089 40.6431,122.1817 5.7202,17.0926 16.2574,48.6196 23.3323,70.2703 7.2254,21.5242 13.6982,40.2631 14.4508,41.5291 1.3549,2.1525 7.0749,2.1525 110.1882,1.8992 85.2,-0.3799 109.8869,-0.7597 114.5535,-2.1523 z m 326.9515,0.7597 c 0.7527,-1.7726 -23.9343,-87.3632 -26.3428,-90.7817 -1.0537,-1.6461 -10.8381,-2.0258 -68.7923,-2.5323 l -67.5881,-0.6331 -4.5158,-11.2686 -4.3654,-11.3951 4.0643,-26.5888 c 2.258,-14.6871 7.0748,-46.0873 10.8381,-69.7639 27.0955,-171.6876 26.9449,-169.915 24.8375,-185.1085 -2.559,-20.3848 -24.8375,-86.6036 -34.923,-104.2028 -7.8275,-13.6743 -19.2678,-23.6767 -32.0629,-27.9816 l -9.0317,-3.0386 -86.555,-0.3799 c -47.5674,-0.2531 -88.0601,0 -89.8664,0.3799 l -3.4623,0.633 v 48.1131 48.1129 h 3.4623 c 105.2205,0.1267 119.8219,0.2534 122.0799,1.6461 3.0105,1.8991 10.236,22.7903 10.236,29.3742 0,2.7855 -3.4622,28.488 -7.677,56.976 -4.2149,28.6146 -9.4834,63.9396 -11.5908,78.5002 -2.1074,14.6872 -6.4728,44.8211 -9.7845,67.105 -5.5696,36.7178 -6.0212,42.4155 -5.2685,60.1413 0.7526,21.3977 2.4084,28.3615 18.9667,78.5002 9.1824,27.855 13.8489,36.9711 23.9344,45.9606 8.7307,7.8501 25.4396,15.067 40.9441,17.9792 13.9994,2.5323 201.259,2.7854 202.4632,0.2532 z m -2414.50433,-1.0129 c 0.4515,-0.7597 0.301,-2.6589 -0.6021,-4.0517 -0.7527,-1.5193 -2.7096,-5.0644 -4.0643,-7.85 -6.6234,-12.6613 -22.2785,-39.2501 -23.4828,-39.63 -0.7526,-0.2531 -1.0536,-1.0128 -0.6021,-1.6459 1.2043,-1.3927 -3.4621,-8.7363 -5.4191,-8.7363 -0.9031,0 -1.2042,-0.5065 -0.7526,-1.1395 1.2042,-1.646 -0.6021,-5.3179 -2.2579,-4.4315 -0.7528,0.3798 -0.9032,-0.1266 -0.4517,-1.1395 0.3011,-0.8863 -1.6558,-5.3177 -4.6664,-9.6227 -2.86,-4.4314 -5.2686,-8.483 -5.2686,-9.116 0,-0.5065 -5.2685,-10.3824 -11.7413,-21.6509 -6.6233,-11.3952 -13.6983,-24.1832 -16.1067,-28.4881 -2.258,-4.4314 -4.817,-7.9766 -5.4191,-7.9766 -0.7526,0 -1.3548,-1.1395 -1.3548,-2.4056 0,-1.3928 -0.6021,-2.9121 -1.5053,-3.2919 -0.7527,-0.3799 -1.5053,-1.5194 -1.5053,-2.5323 0,-2.279 -14.752,-28.2347 -16.5583,-29.121 -0.9032,-0.5064 -1.5053,-1.8992 -1.5053,-3.292 0,-1.2661 -0.6021,-2.4056 -1.5053,-2.4056 -0.7527,0 -1.0538,-0.8863 -0.6021,-1.8992 0.6021,-1.013 -0.1506,-2.1525 -1.5054,-2.6589 -1.3547,-0.3799 -2.1074,-1.2662 -1.6557,-1.7727 0.4515,-0.5064 -0.6022,-3.1653 -2.2581,-5.9508 -9.4834,-15.7 -27.0955,-47.2267 -27.0955,-48.3662 0,-0.7597 -0.602,-1.3927 -1.5052,-1.3927 -0.7526,0 -1.5053,-0.8864 -1.5053,-1.8992 0,-2.1526 -15.354,-28.9945 -16.8593,-29.5009 -0.7527,-0.2533 -1.2043,-1.1396 -1.2043,-2.1525 0,-2.7855 -6.0212,-13.2944 -7.6771,-13.2944 -0.9031,0 -1.2042,-0.5064 -0.602,-1.1395 0.7527,-1.0129 -11.2898,-23.4234 -20.7732,-38.7436 -1.6558,-2.7855 -3.6127,-5.9509 -4.2148,-6.9639 -11.2898,-20.0047 -16.4079,-29.5008 -16.4079,-30.5137 0,-0.6331 -0.6021,-1.1395 -1.5053,-1.1395 -0.7526,0 -1.5052,-1.1396 -1.5052,-2.4056 0,-1.3928 -0.6022,-2.9122 -1.5053,-3.292 -0.7527,-0.3798 -1.5054,-1.8992 -1.5054,-3.2919 0,-1.2661 -0.6021,-2.4058 -1.5053,-2.4058 -0.7526,0 -1.5053,-0.8862 -1.5053,-1.8992 0,-1.0128 -3.7632,-8.1032 -8.2792,-15.7 -4.5158,-7.5967 -8.2791,-14.3073 -8.2791,-15.0669 0,-0.6331 -0.9031,-1.8992 -2.1074,-2.7855 -1.2043,-0.7597 -1.8064,-2.2791 -1.3548,-3.292 0.4516,-0.8863 -0.301,-2.1525 -1.6558,-2.5322 -1.3548,-0.3799 -2.1074,-1.2662 -1.6559,-1.7726 0.6022,-0.7597 -7.978,-16.0799 -23.4827,-42.1622 -1.5053,-2.7856 -2.8601,-5.6976 -2.8601,-6.7105 0,-1.0129 -0.6021,-1.7726 -1.2042,-1.7726 -0.7526,0 -2.1074,-2.0258 -3.3116,-4.4315 -2.5591,-5.5709 -4.9675,-5.5709 -8.5803,-0.1266 -11.4402,18.1057 -16.5583,26.9687 -15.9562,28.3614 0.4517,0.7596 0,1.5193 -0.9031,1.5193 -0.9032,0 -1.6559,1.1395 -1.6559,2.5323 0,1.3928 -0.6021,2.5323 -1.3547,2.5323 -0.6021,0 -4.3654,6.9638 -8.1286,15.5734 -6.6234,14.6871 -8.5803,20.1316 -11.5909,31.9066 -0.7527,2.7854 -2.1075,7.5967 -3.0106,10.7621 -6.4728,21.904 -8.2791,37.0977 -8.2791,71.5364 0,35.3251 2.2578,55.5832 8.2791,75.3349 0.9031,3.1653 2.4085,8.2299 3.1611,11.3953 2.7096,10.7621 15.5047,42.1621 18.6658,45.5808 0.9032,1.0128 2.5589,4.1782 3.4622,6.9636 2.1074,6.0774 18.8162,31.6534 29.3534,44.9477 20.7732,25.9557 49.0728,52.2913 76.4693,70.7769 15.8056,10.8887 44.5569,27.0951 56.2982,31.9065 4.2149,1.646 7.8276,3.292 8.2793,3.6717 1.8063,1.5194 7.677,3.7985 9.7844,3.7985 1.2043,0 2.2579,0.633 2.2579,1.2661 0,0.7597 0.9032,1.2662 1.957,1.2662 1.0537,0 4.817,1.1394 8.2792,2.5322 3.3116,1.3927 6.9243,2.5324 7.8275,2.5324 0.7526,0 2.7095,0.5064 4.2148,1.1394 8.1286,3.5452 29.0524,9.3694 31.3103,8.7364 0.7527,-0.1266 3.0106,0.5064 4.9675,1.3927 1.8064,0.8863 4.6665,1.3928 6.3223,1.0129 1.5053,-0.3799 3.0105,0 3.1611,0.633 0.3011,0.7598 3.3117,1.3928 6.6234,1.646 3.4622,0.1267 7.0748,0.7597 8.1285,1.266 1.0538,0.5067 8.1287,1.6461 15.6552,2.5324 7.5265,0.8863 14.1499,1.6459 14.752,1.7726 0.6021,0 1.5053,-0.5064 2.1074,-1.2661 z m 861.03283,-115.7245 c 0.4515,-1.013 -0.3011,-5.1912 -1.6559,-9.1162 -1.3549,-4.0516 -3.1612,-9.6226 -4.0643,-12.408 -3.3117,-10.2558 -4.6665,-13.9275 -5.8707,-16.08 -0.7527,-1.2661 -1.3548,-3.5451 -1.3548,-5.1911 0,-1.646 -0.7526,-3.5452 -1.5053,-4.1782 -0.9032,-0.7598 -1.8063,-2.7855 -2.1074,-4.4315 -1.2042,-8.6097 -5.1181,-17.5992 -7.8275,-17.5992 -1.2043,0 -2.1075,-0.3799 -2.1075,-0.8863 0,-1.5194 -72.5555,-0.6332 -74.2114,0.7596 -1.5053,1.2661 0.301,8.3565 3.9138,15.3202 0.9032,1.7727 1.8063,4.0517 1.8063,5.0645 0.1507,2.2791 1.6559,7.0904 5.4192,17.0929 6.7738,18.6121 8.8812,24.6896 8.8812,26.3354 0,0.8864 1.2043,2.9121 2.7096,4.4316 2.559,2.6587 3.3116,2.7855 39.8905,2.7855 31.4608,0 37.482,-0.2533 38.0842,-1.8992 z m 657.9674,0 c 0.4516,-1.1396 -0.3011,-3.0388 -1.6559,-4.3049 -1.3547,-1.2661 -2.1074,-2.5323 -1.6557,-2.9121 0.4515,-0.3799 -0.3011,-4.0516 -1.6559,-8.1033 -1.3548,-4.0516 -2.7095,-8.8629 -3.1611,-10.6355 -0.4517,-1.7725 -1.8064,-4.1782 -2.7096,-5.4443 -1.0537,-1.2661 -1.6558,-3.2919 -1.2043,-4.6847 0.4516,-1.2662 0,-2.6589 -0.9032,-3.0388 -0.9032,-0.5064 -1.6557,-2.5322 -1.6557,-4.558 0,-2.0259 -0.6021,-4.0517 -1.5054,-4.4315 -0.7526,-0.3798 -1.5053,-2.4056 -1.5053,-4.4314 0,-2.0259 -0.6021,-4.0517 -1.5053,-4.4315 -0.7527,-0.3799 -1.5052,-2.2791 -1.5052,-4.1783 0,-1.8991 -1.0538,-4.8112 -2.4085,-6.3306 l -2.4086,-2.9121 -63.8247,0.1266 c -54.3415,0.1266 -63.8248,0.3799 -63.8248,2.0258 0,2.2791 11.2897,14.6872 30.1061,33.4259 11.1391,11.142 34.7724,33.1726 37.6324,35.0719 1.6559,1.1395 13.0962,1.5193 43.3528,1.646 35.5251,0 41.0947,-0.2533 41.9979,-1.8992 z m 264.9332,-1.3927 c 0.4515,-1.013 -0.3011,-3.1654 -1.6559,-4.938 -1.3548,-1.7726 -2.1074,-3.7984 -1.6558,-4.4315 0.4516,-0.5064 0.1505,-2.4056 -0.6022,-4.0516 -0.7526,-1.6459 -2.1074,-5.4444 -3.1611,-8.6098 -1.0537,-3.1653 -2.5591,-7.3436 -3.6127,-9.4959 -0.9032,-2.0259 -1.3548,-4.3048 -1.2043,-4.938 0.3011,-0.6329 -0.1505,-2.6589 -0.9032,-4.4313 -0.7526,-1.7726 -2.2579,-5.8243 -3.3116,-8.9897 -0.9032,-3.1652 -2.4085,-6.7104 -3.1611,-7.8499 -0.7527,-1.2662 -1.3549,-3.5452 -1.3549,-5.0645 0,-1.6461 -1.0536,-3.925 -2.1074,-5.0646 -1.8063,-2.0258 -5.5695,-2.279 -39.4388,-2.279 -20.6227,0 -38.5357,0.5064 -39.74,1.2661 -1.8063,0.8863 -1.8063,1.7726 -0.3011,5.4444 1.0537,2.279 1.8064,5.0645 1.8064,6.2041 0,1.1394 0.9032,3.5451 2.1074,5.4442 1.2042,1.8992 1.8063,4.1783 1.5053,5.0646 -0.4516,0.8863 -0.1505,2.0258 0.7527,2.5324 0.9032,0.3797 1.6558,1.8991 1.6558,3.4184 0,1.3928 1.3547,6.0775 2.8601,10.3823 1.6557,4.1783 3.7632,10.2558 4.6664,13.4211 1.0537,3.1653 2.4084,6.9636 3.1612,8.6096 0.7526,1.646 1.3547,4.0516 1.3547,5.3178 0,4.5581 4.2149,5.0645 43.3527,4.938 31.7618,0 38.2347,-0.3799 38.9874,-1.8992 z M 621.27707,9518.0715 v -69.3841 l -6.9244,-0.8863 c -11.1393,-1.2661 -61.7174,-0.8863 -65.9322,0.5064 -2.8602,0.8864 -3.9138,0.7598 -3.9138,-0.2532 0,-1.1395 -0.4516,-1.1395 -1.6558,-0.1265 -1.0538,0.8862 -1.2043,2.0257 0,3.6717 0.9031,1.3928 2.86,4.6848 4.3653,7.4702 1.5053,2.7856 3.6127,6.3306 4.5159,7.9766 4.0644,6.4574 4.817,7.8501 4.817,9.7493 0,1.0129 0.7527,1.8992 1.5053,1.8992 0.9031,0 1.5053,1.1394 1.5053,2.5322 0,1.3928 0.7526,2.5322 1.5053,2.5322 0.9032,0 1.5053,1.1396 1.5053,2.5323 0,1.3928 0.7526,2.5323 1.5053,2.5323 0.9032,0 1.5053,0.8863 1.5053,2.0259 0,1.1395 3.7632,8.7362 8.4297,16.8394 4.6664,8.1033 11.4402,19.8784 15.053,26.3356 3.6127,6.3308 9.4834,16.9663 13.0962,23.4235 3.6127,6.4573 8.8812,15.9533 11.7413,21.0178 2.7095,4.938 5.5696,9.1161 6.1717,9.1161 0.6021,0 1.2043,-31.2734 1.2043,-69.5106 z m 1977.21413,33.1726 c -0.6021,-2.6589 -0.301,-5.0645 0.9032,-6.2041 0.9031,-1.0129 1.9569,-5.9508 2.1073,-11.0154 0.3011,-4.9378 1.2043,-11.6483 2.258,-14.687 0.9032,-3.0388 1.5053,-7.8501 1.3548,-10.7622 -0.3011,-2.912 0.1505,-6.0774 0.9032,-7.0903 0.7526,-1.0128 1.5052,-5.8241 1.8064,-10.7621 0.1504,-4.8113 1.0537,-11.9016 1.8062,-15.7001 0.9032,-3.7983 1.3549,-7.9766 0.9032,-9.1162 -0.602,-1.2661 -0.1504,-3.6718 0.9032,-5.1911 1.0538,-1.6459 1.9569,-6.7104 2.1075,-11.2685 0.3011,-4.6849 0.7526,-8.9895 1.2042,-9.496 0.4515,-0.6331 1.2043,-5.0645 1.8064,-10.0024 0.4516,-4.8113 1.9569,-15.4468 3.1611,-23.4235 1.0538,-7.9766 2.4085,-17.346 2.8601,-20.8912 2.5591,-23.297 3.6127,-30.6404 4.5158,-32.5396 0.6022,-1.1395 0.3011,-4.1782 -0.7525,-6.7105 l -1.8064,-4.4314 h -54.0403 -54.0405 v 60.6477 60.6478 l 4.516,1.5193 c 2.4085,0.8863 5.5696,1.2662 6.7738,0.7597 1.3549,-0.3798 2.1075,-0.2532 1.6559,0.2532 -0.4516,0.6332 2.8601,2.5324 7.376,4.4315 15.3541,6.3306 31.3103,21.3976 41.8473,39.5033 1.6559,2.7856 3.4623,6.0775 4.215,7.217 0.7526,1.2661 1.3546,3.1653 1.3546,4.4314 0,2.4058 2.7097,10.0025 4.6665,13.2945 0.7527,1.266 1.3548,3.925 1.3548,5.9507 0,2.1525 0.7527,4.1783 1.5053,4.5581 0.9031,0.3799 1.5053,2.1525 1.5053,3.9251 0,4.1781 2.7095,8.3564 4.6665,7.3435 1.0537,-0.5064 1.2042,-2.6589 0.6021,-5.1912 z M 1280.1477,9424.3776 c 1.957,-0.1265 1.0538,-8.7364 -1.2042,-10.8886 -0.7526,-0.6331 -1.3548,-2.659 -1.3548,-4.5581 0,-1.8992 -0.6021,-3.925 -1.5052,-4.3049 -0.7528,-0.3799 -1.5053,-2.0258 -1.5053,-3.4185 0,-1.5195 -0.6021,-4.4315 -1.3549,-6.5839 -3.7632,-10.3823 -7.8275,-22.917 -11.5908,-34.9453 -2.258,-7.3435 -4.6664,-14.3073 -5.4191,-15.4469 -1.2042,-2.1523 -4.8169,-2.2789 -42.6,-2.2789 -46.5138,0 -44.4064,-0.5064 -38.5358,9.3694 1.6559,2.6588 2.5591,5.5709 2.2581,6.4572 -0.4516,0.8863 0.1505,2.4056 1.3547,3.2919 1.2043,0.8863 1.8063,2.659 1.5053,3.7985 -0.4516,1.1395 0.1505,3.5452 1.2042,5.0645 1.0538,1.646 1.8063,3.6718 1.6559,4.3048 -0.1506,0.7597 1.2042,4.4315 2.8601,8.2299 1.8063,3.7985 3.1611,8.2298 3.0105,9.7492 0,1.5194 0.6022,3.1653 1.3548,3.5451 0.9032,0.3799 1.5053,1.7727 1.5053,3.0389 0,1.266 1.2043,5.5708 2.8601,9.7491 1.5053,4.0517 3.3116,8.9895 3.7633,11.0154 0.6021,1.8992 1.9569,3.4185 3.3116,3.4185 1.2043,0 1.9569,0.3799 1.6558,1.0129 -0.602,0.6331 65.0291,1.0129 76.7704,0.3798 z m 924.2554,-0.8863 c 0.4516,-1.0129 0.1506,-2.5322 -0.9032,-3.4186 -0.9032,-0.7597 -1.6557,-2.6589 -1.6557,-4.3048 0,-1.5195 -0.6022,-4.0516 -1.3549,-5.6976 -0.7526,-1.646 -2.2579,-6.2041 -3.3117,-10.2557 -1.0536,-3.9249 -2.7095,-7.85 -3.6126,-8.483 -1.0538,-0.7598 -1.5053,-2.659 -1.2043,-4.3048 0.4516,-1.6461 0,-3.4187 -0.9031,-3.7986 -0.9032,-0.5065 -1.6559,-2.5322 -1.6559,-4.6847 0,-2.0257 -0.6021,-4.6846 -1.3548,-5.9506 -0.7526,-1.1397 -2.1074,-4.6847 -3.1612,-7.8501 -1.0536,-3.1653 -2.4084,-6.7104 -3.1611,-7.85 -0.7526,-1.2662 -1.3547,-3.5451 -1.3547,-5.1912 0,-1.6459 -0.9031,-4.4314 -1.8063,-6.3306 l -1.957,-3.4185 -39.1378,0.2531 -39.1379,0.3799 -0.4515,3.292 c -0.3011,1.8991 0.602,4.1782 1.8063,5.3177 1.3547,1.1396 1.9569,2.7855 1.5053,3.7984 -0.4516,1.1394 0,3.2919 1.0537,4.9379 1.0538,1.646 1.8064,4.0516 1.5053,5.5711 -0.1505,1.3925 0.7527,3.2918 1.9569,4.3047 1.5053,0.8864 2.1074,2.6589 1.5053,4.4315 -0.4515,1.646 -0.1505,3.2919 0.7527,3.6718 0.9032,0.5064 1.6558,2.5323 1.6558,4.5581 0,2.0258 0.6022,3.925 1.3548,4.3048 0.7526,0.3799 1.6558,2.5323 2.1074,4.8113 0.3011,2.2791 2.1074,8.4831 3.9138,13.6742 1.8063,5.1911 3.6126,11.2686 4.2148,13.2945 1.6558,7.0903 0.7527,6.9635 42.9012,6.9635 34.0198,0 38.9872,-0.2531 39.8904,-2.0257 z m -1413.02693,-134.3367 -0.7527,-66.8516 -69.0933,-0.3799 c -54.3414,-0.2532 -69.3944,0 -70.4482,1.2661 -0.6021,0.8863 -1.2042,5.3177 -1.2042,9.8759 l -0.1505,8.2297 70.2976,58.6219 c 38.6862,32.16 70.7492,57.989 71.2007,57.3558 0.4517,-0.633 0.6022,-31.2734 0.1506,-68.1179 z m 110.6397,-119.2697 c 0.4516,-0.633 -6.4728,-8.4831 -15.5046,-17.4726 -67.1365,-66.4719 -154.8956,-111.5462 -253.1918,-130.0318 -36.8799,-6.8371 -60.5132,-8.8628 -104.6185,-8.8628 -43.2022,0 -59.4594,1.1395 -96.3393,7.47 -33.1167,5.571 -88.5118,21.0179 -97.092,26.9687 -3.3116,2.4057 -5.8706,-2.7855 31.9124,62.0405 2.559,4.3049 5.2685,7.8501 6.0213,7.8501 0.7526,0 5.118,-1.3928 9.9349,-3.0388 24.687,-8.4831 54.0404,-15.4468 85.5011,-20.0048 26.0418,-3.7986 86.856,-4.1783 112.8977,-0.6331 40.9442,5.4443 81.1357,16.0797 117.564,31.2734 22.4291,9.3694 54.492,26.7154 71.2009,38.4905 l 9.7844,6.8371 60.5132,0.1265 c 35.9767,0.1267 60.8141,-0.3798 61.4163,-1.0129 z"
       id="path10"
       style="stroke-width:0.138055" />
    <path
       d="m 2441.7892,9665.9558 c -0.602,-0.8863 -9.6339,-28.1083 -20.171,-60.5212 -14.3003,-43.9347 -18.8163,-59.3816 -17.4615,-60.3945 2.4085,-2.1525 21.8269,0 29.3534,3.292 3.7632,1.5193 8.7307,5.571 12.795,10.0023 7.075,8.2299 11.1393,17.7259 22.8806,53.9373 10.8382,33.5524 9.7845,46.9735 -3.9138,52.7977 -6.0212,2.5323 -21.8269,3.1653 -23.4827,0.8864 z"
       id="path12"
       style="stroke-width:0.138055" />
    <path
       style="fill:#f9f9f9;stroke-width:2.38282"
       d="m 118.20517,9027.7083 c 0,1.7885 547.5717,976.9297 550.1845,979.7947 0.843,0.924 28.6332,2.154 61.7559,2.733 l 60.2232,1.052 v -314.9698 c 0,-299.62 -0.2865,-314.7278 -5.8814,-310.0093 -3.2348,2.7281 -34.9946,28.861 -70.5772,58.0732 l -64.6958,53.1129 v 97.0453 c 0,53.375 -1.1342,97.0377 -2.5206,97.0282 -3.0249,-0.02 -144.9628,-254.2918 -146.1841,-261.8783 -0.7498,-4.6568 8.0934,-5.3977 73.9265,-6.194 l 74.7782,-0.9045 v 27.1414 c 0,26.703 0.1116,27.0634 6.8992,22.309 20.8749,-14.6214 123.8275,-101.8625 123.1002,-104.3139 -0.4733,-1.5947 -28.7824,-26.0997 -62.9093,-54.4555 l -62.0488,-51.556 -1.6805,24.2081 -1.6804,24.2081 -104.1853,0.7125 -104.1854,0.7125 -82.34,-141.8668 -82.3401,-141.8666 -79.8194,-0.9011 c -43.9007,-0.4957 -79.8194,-0.1425 -79.8194,0.7852 z"
       id="path457" />
    <path
       style="fill:#f9f9f9;stroke-width:2.38282"
       d="m 141.21017,9183.262 c -21.5371,23.8408 -43.257299,57.2931 -60.120059,92.5937 -116.55843,244.0047 55.817959,520.4871 356.392759,571.6346 15.7118,2.6736 44.0687,5.9367 63.0153,7.2513 28.2076,1.9571 34.4341,1.5506 34.3693,-2.2439 -0.043,-2.5487 -8.7795,-19.7017 -19.4131,-38.1178 l -19.334,-33.4838 -36.8806,-5.9674 c -95.6774,-15.4807 -169.3616,-51.9872 -231.9848,-114.9359 -67.8944,-68.2472 -98.9651,-147.3098 -94.5662,-240.6334 2.7122,-57.5394 21.5051,-114.0883 53.3275,-160.4649 l 9.7913,-14.2695 -20.6102,-36.9831 c -11.3356,-20.3407 -21.0583,-36.983 -21.606,-36.983 -0.5478,0 -6.1193,5.6714 -12.3812,12.6031 z"
       id="path459" />
    <path
       style="fill:#f9f9f9;stroke-width:2.38282"
       d="m 434.12207,9022.7117 c -39.3853,7.2642 -89.7627,21.2732 -94.8714,26.382 -2.2091,2.209 3.0073,14.1174 15.431,35.2271 l 18.7682,31.89 26.0589,-8.0401 c 57.5997,-17.7715 139.3814,-23.0122 199.5413,-12.7868 58.9602,10.0213 127.7477,36.4846 169.4913,65.2049 l 14.6364,10.0701 51.4872,-0.052 c 49.6313,-0.052 63.0695,-2.1661 58.6948,-9.2445 -4.4878,-7.2615 -58.9866,-51.2395 -81.1457,-65.4808 -50.9097,-32.7191 -108.0536,-56.2457 -170.2277,-70.0842 -47.0334,-10.4687 -158.8382,-12.1287 -207.8643,-3.0863 z"
       id="path461" />
    <path
       style="fill:#f9f9f9;stroke-width:2.38282"
       d="m 830.69857,9489.9366 v 265.5046 h 53.2397 53.2396 l 2.205,-68.0565 c 1.2128,-37.4311 2.209,-80.8361 2.2139,-96.4555 0.01,-18.5503 1.1512,-27.2565 3.3031,-25.1046 1.8119,1.8119 18.1368,44.8387 36.2777,95.6153 l 32.98343,92.3209 55.7646,0.9198 55.7645,0.9197 -8.862,-27.9448 c -4.8741,-15.3696 -45.0367,-134.8825 -89.2503,-265.5842 L 947.18947,9224.432 h -58.2454 -58.2455 z"
       id="path463" />
    <path
       style="fill:#f9f9f9;stroke-width:2.38282"
       d="m 990.78247,9233.4107 c 1.2394,4.9383 40.96793,124.0373 88.28553,264.6644 l 86.032,255.6857 111.9881,0.8858 111.9881,0.8858 -2.1935,-7.6074 c -1.2066,-4.1841 -7.6819,-24.5864 -14.3895,-45.3386 l -12.1959,-37.7311 -55.5868,-0.9183 -55.5867,-0.9182 -19.1096,-55.4535 c -10.5103,-30.4995 -18.7057,-56.9659 -18.2121,-58.8144 0.5265,-1.9713 23.0603,-4.0555 54.5032,-5.0412 l 53.6057,-1.6804 -14.6404,-46.2113 -14.6403,-46.2112 -54.3631,-0.052 c -29.8997,-0.03 -56.1637,-1.1963 -58.3644,-2.5955 -3.5363,-2.2484 -36.7041,-95.04 -42.6011,-119.1827 l -2.2575,-9.2422 h 54.9573 c 30.2266,0 55.8178,-0.8604 56.8693,-1.9119 1.0516,-1.0516 -4.8781,-22.2248 -13.1773,-47.0515 l -15.0891,-45.1395 H 1102.5666 988.52897 Z"
       id="path465" />
    <path
       style="fill:#f9f9f9;stroke-width:2.38282"
       d="m 1269.3172,9258.8001 c 6.2486,18.9908 45.5599,138.504 87.3585,265.5849 l 75.9974,231.0562 h 51.4418 51.4418 l 2.1373,-15.5927 c 1.1754,-8.576 2.1428,-28.6149 2.1495,-44.5308 0.023,-48.4597 4.2405,-124.7215 6.9014,-124.7215 1.3791,0 16.4436,41.5902 33.4767,92.4226 l 30.9693,92.4224 h 51.5031 c 30.4836,0 52.3452,-1.3626 53.5665,-3.3387 2.3414,-3.7884 0.651,-9.1122 -97.8918,-308.3772 l -72.2098,-219.2933 h -51.8958 -51.8956 v 48.2005 c 0,62.5903 -3.749,140.0053 -6.78,140.0053 -1.3074,0 -16.68,-41.9682 -34.1614,-93.2627 l -31.7842,-93.2627 -55.8429,-0.9205 -55.8429,-0.9205 z"
       id="path467" />
    <path
       style="fill:#f9f9f9;stroke-width:2.38282"
       d="m 1672.5835,9229.1347 c -27.5151,6.7642 -44.7385,18.3225 -54.0924,36.3004 -10.4513,20.0871 -6.6826,36.9794 39.3909,176.5609 49.9578,151.3488 55.0083,164.0703 74.4042,187.4146 50.3276,60.5724 91.6212,99.5263 123.8031,116.7884 l 17.2305,9.2422 h 87.2239 c 81.5415,0 87.1022,-0.3831 85.3558,-5.8814 -1.0274,-3.2348 -7.6896,-23.2737 -14.8049,-44.5308 l -12.9369,-38.6494 -53.0221,-0.9275 -53.0221,-0.9275 -22.3013,-19.8296 c -28.1547,-25.0342 -69.9324,-72.8082 -81.789,-93.5278 -10.8344,-18.9334 -73.2646,-203.4508 -73.2646,-216.5393 0,-12.0803 8.2647,-16.093 33.1458,-16.093 h 20.1444 l 6.5658,17.6443 c 22.9851,61.7673 37.7912,107.051 35.9669,110.0028 -1.1642,1.8837 -7.3207,3.4248 -13.6812,3.4248 -6.3604,0 -11.5645,1.1786 -11.5645,2.6191 0,1.4406 6.56,22.2357 14.5777,46.2113 l 14.5778,43.5921 71.1231,0.907 c 39.1177,0.4989 71.1231,0.4136 71.1231,-0.1896 0,-2.1297 -94.0683,-289.9487 -99.367,-304.0312 l -5.3743,-14.2835 -91.3043,0.2858 c -59.9218,0.1875 -97.0801,1.7059 -108.1084,4.417 z"
       id="path469" />
    <path
       style="fill:#f9f9f9;stroke-width:2.38282"
       d="m 1915.0513,9233.6743 c 1.2636,5.0832 40.9921,124.1822 88.2855,264.6644 l 85.9881,255.4221 111.7472,0.8855 c 88.3552,0.7002 111.6993,0 111.5183,-3.3608 -0.126,-2.3355 -6.5535,-22.3947 -14.2835,-44.5761 l -14.0545,-40.3298 -54.5395,-0.9231 c -47.6589,-0.8067 -54.9207,-1.6547 -57.5622,-6.7217 -7.1422,-13.7004 -37.5262,-108.8297 -35.7025,-111.7806 1.1489,-1.8588 24.1689,-3.2445 53.8996,-3.2445 47.2698,0 51.8739,-0.5241 51.6654,-5.8814 -0.126,-3.2348 -6.5535,-24.0299 -14.2834,-46.2112 l -14.0546,-40.3299 -54.7423,-1.6804 c -43.6479,-1.3398 -55.4008,-2.7021 -57.9914,-6.7216 -3.5526,-5.5123 -40.1836,-115.9441 -40.1836,-121.1419 0,-1.9022 21.6641,-3.2084 53.213,-3.2084 29.2672,0 54.1001,-0.8871 55.1844,-1.9714 1.0843,-1.0843 -4.938,-22.2574 -13.3829,-47.0514 l -15.3543,-45.0801 H 2026.586 1912.7539 Z"
       id="path471" />
    <path
       style="fill:#f9f9f9;stroke-width:2.38282"
       d="m 2181.7474,9228.6494 c 0,2.3195 39.0723,121.4184 86.8272,264.6644 l 86.8273,260.447 h 112.9585 112.9584 l 12.0108,-11.6448 c 14.8078,-14.3568 19.9328,-31.2958 15.4716,-51.1368 -3.4779,-15.4673 -46.7418,-144.0954 -55.3048,-164.4265 -6.8223,-16.1983 -25.6135,-32.142 -43.1849,-36.6406 -7.8802,-2.0175 -16.0291,-4.2297 -18.1088,-4.916 -2.6558,-0.8766 -4.5231,-39.8348 -6.2745,-130.906 l -2.4933,-129.6581 h -56.7408 -56.7408 v 95.7833 c 0,55.8597 -1.2851,95.7833 -3.083,95.7833 -1.6957,0 -8.7139,-17.0141 -15.5962,-37.8091 -6.8824,-20.7952 -21.5448,-63.8976 -32.583,-95.7834 l -20.0697,-57.9741 h -58.437 c -44.6295,0 -58.437,0.9965 -58.437,4.2174 z m 255.5322,320.1584 c 11.6815,6.0408 17.6577,16.7966 30.5897,55.0547 16.0204,47.3944 11.3865,65.8487 -15.9652,63.5798 l -12.8113,-1.0627 -17.7206,-55.4535 c -9.7463,-30.4995 -17.7409,-58.1002 -17.7657,-61.335 -0.06,-7.6091 19.5895,-8.0662 33.6731,-0.7833 z"
       id="path473" />
    <path
       style="fill:#f9f9f9;stroke-width:2.38282"
       d="m 2521.19,9271.4834 v 47.0515 h 62.2583 62.2584 l 3.9534,9.2423 c 6.3719,14.8957 4.3132,40.0234 -12.4594,152.077 -19.2052,128.3048 -19.2145,143.5462 -0.123,201.6419 10.1449,30.871 15.1638,41.1073 24.9567,50.9002 20.9131,20.9131 34.3472,23.0449 145.221,23.0449 h 96.6397 l -6.6345,-24.3659 c -3.6489,-13.4013 -9.7254,-33.8182 -13.5032,-45.371 l -6.8686,-21.0051 h -67.1139 -67.1139 l -5.2529,-12.5721 c -5.0081,-11.9862 -4.4526,-17.7427 11.9186,-123.5101 9.4443,-61.0159 18.8583,-122.2303 20.9199,-136.0321 4.4268,-29.6353 1.9125,-44.0078 -17.2343,-98.5174 -24.4297,-69.5494 -24.6058,-69.6355 -142.4283,-69.6355 h -89.394 z"
       id="path475" />
    <path
       style="fill:#f9f9f9;stroke-width:0.595705"
       d="m 1373.47,9879.5815 c -3e-4,24.8386 -0.252,70.4296 -0.5587,101.3146 l -0.558,56.1539 28.2564,-0.28 c 23.7557,-0.236 28.451,-0.481 29.478,-1.541 0.7733,-0.797 3.1079,-12.204 6.3625,-31.087 6.884,-39.9399 10.1997,-58.3269 10.5891,-58.7209 1.0182,-1.031 5.3541,16.139 14.9265,59.1089 6.6201,29.717 7.0077,31.081 8.9937,31.634 1.1415,0.318 13.4508,0.616 27.354,0.662 l 25.2784,0.08 0.558,-50.5509 c 0.3067,-27.803 0.588,-66.463 0.624,-85.911 0.038,-21.3649 0.3578,-34.5286 0.8024,-33.2595 0.405,1.1553 3.8003,19.3035 7.5454,40.3295 17.6611,99.1549 22.7995,126.4889 24.0079,127.7119 1.0518,1.064 5.1517,1.26 26.379,1.26 17.3723,0 25.4233,-0.29 26.0719,-0.937 0.939,-0.938 3.1549,-11.451 23.0903,-109.5499 5.8693,-28.882 11.0123,-52.8721 11.4288,-53.3111 0.45,-0.4742 0.761,31.4181 0.7665,78.5591 0.01,43.646 0.2512,80.8239 0.5475,82.6169 l 0.5385,3.259 27.3892,-0.464 c 29.1142,-0.492 33.7338,-1.028 43.7435,-5.071 7.7637,-3.136 13.3801,-6.851 21.4396,-14.181 4.0277,-3.664 7.4867,-6.498 7.6866,-6.298 0.1995,0.2 -0.405,5.305 -1.3434,11.344 -0.9388,6.039 -1.7068,11.806 -1.7068,12.815 v 1.835 l 22.2448,-0.33 c 14.7177,-0.218 22.5594,-0.644 23.1746,-1.26 1.0032,-1.003 1.7128,-5.004 11.3768,-64.1429 3.5113,-21.488 6.6803,-39.604 7.0419,-40.257 0.5242,-0.946 0.7553,-0.861 1.1397,0.42 1.1699,3.9 16.1267,86.8769 17.969,99.6889 0.2483,1.726 1.0274,3.617 1.7315,4.201 0.9979,0.829 14.3135,1.127 60.3857,1.353 l 59.1056,0.291 v -18.145 -18.145 h -18.9045 -18.9046 v -23.1059 -23.105 h 19.4474 19.4474 l -0.501,-16.174 c -0.2752,-8.896 -0.7527,-17.025 -1.0609,-18.065 -0.558,-1.882 -0.6368,-1.89 -18.1066,-1.89 h -17.5463 v -21.845 -21.8456 h 18.0644 18.0644 v -19.7448 -19.7448 h -40.3299 -40.3297 v 83.6002 c 0,45.98 -0.2858,83.5999 -0.636,83.5999 -0.3495,0 -1.805,-5.7649 -3.2344,-12.8129 -1.4293,-7.047 -8.9539,-44.194 -16.7215,-82.55 -7.7675,-38.3551 -14.4873,-70.2093 -14.9329,-70.787 -0.615,-0.7969 -6.6186,-1.0502 -24.8914,-1.0502 h -24.0812 l -3.6006,17.4342 c -12.9703,62.803 -19.4642,92.299 -20.7944,94.451 -0.2851,0.461 -1.9269,-2.343 -3.6493,-6.23 -3.7849,-8.543 -6.9051,-13.193 -14.8502,-22.133 l -6.0433,-6.8 9.9166,-28.489 c 5.4542,-15.6686 11.452,-32.76 13.3284,-37.9809 2.4418,-6.7937 3.1189,-9.6049 2.3817,-9.8878 -0.5663,-0.2174 -10.2521,-0.2938 -21.5234,-0.1699 l -20.4931,0.2255 -9.9411,31.4128 c -5.4676,17.2773 -10.3687,31.9283 -10.8915,32.5583 -0.5565,0.67 -2.5933,1.145 -4.9162,1.145 h -3.9659 l -0.5497,-14.494 c -0.3023,-7.9712 -0.5513,-22.9247 -0.552,-33.2296 v -18.7363 l -38.8595,0.5942 c -21.3727,0.3269 -39.8018,0.8447 -40.9537,1.1508 -2.3302,0.6193 -2.511,1.2324 -5.8903,19.9737 l -1.8559,10.2925 -15.2447,-0.013 c -8.3846,-0.01 -15.6324,-0.2906 -16.1063,-0.6302 -0.474,-0.3395 -1.7529,-6.8558 -2.842,-14.4806 -1.0891,-7.6249 -2.1596,-14.336 -2.3789,-14.9137 -0.3113,-0.8204 -9.3876,-1.0502 -41.4789,-1.0502 h -41.0801 v 42.0102 c 0,23.1052 -0.2895,42.0102 -0.6427,42.0102 -0.354,0 -1.5153,-4.065 -2.5813,-9.032 -9.077,-42.3022 -16.3642,-73.795 -17.1979,-74.3251 -0.552,-0.3507 -5.8318,-0.6434 -11.7336,-0.6504 -10.3333,-0.012 -10.7607,0.057 -11.5424,1.8776 -0.4463,1.0397 -4.0388,16.636 -7.9831,34.6584 -12.2141,55.8105 -10.7873,50.0655 -11.4764,46.2115 -0.3308,-1.849 -0.6225,-16.819 -0.6495,-33.267 -0.03,-16.4474 -0.2955,-34.5013 -0.5978,-40.1192 l -0.549,-10.2144 h -20.4558 -20.4559 z m 221.8147,22.7946 c 0,3.261 -9.3741,57.365 -10.9586,63.25 -0.7997,2.969 -2.4847,4.508 -2.4847,2.268 0,-1.668 -7.516,-61.617 -8.0765,-64.42 l -0.5355,-2.678 h 11.0277 c 10.2333,0 11.0277,0.114 11.0277,1.58 z m 103.5509,37.175 c 7.5139,3.833 12.8171,10.937 15.3104,20.509 1.7491,6.716 1.6181,12.588 -0.429,19.215 -2.3694,7.671 -9.4548,15.309 -18.0277,19.432 -3.332,1.6029 -6.6802,2.9139 -7.4404,2.9139 -1.2591,0 -1.3822,-2.9079 -1.3822,-32.6529 v -32.654 l 4.3689,0.795 c 2.4029,0.436 5.8228,1.535 7.5996,2.442 z"
       id="path477" />
    <path
       style="fill:#f9f9f9;stroke-width:0.595705"
       d="m 1955.7325,9936.0851 v 100.8249 h 21.4251 21.4253 v -82.3399 -82.3404 h 18.0643 18.0644 v -18.4845 -18.4845 h -39.4895 -39.4896 z"
       id="path319" />
  </g>
</svg>
